<svg width="30" height="30" viewBox="0 0 30 30" fill="none" xmlns="http://www.w3.org/2000/svg">
<g clip-path="url(#clip0_2879_7983)">
<path d="M14.9998 7.30875C10.7435 7.30875 7.30854 10.7437 7.30854 15C7.30854 19.2563 10.7435 22.6912 14.9998 22.6912C19.2561 22.6912 22.6911 19.2563 22.6911 15C22.6911 10.7437 19.2561 7.30875 14.9998 7.30875ZM14.9998 19.9987C12.2473 19.9987 10.001 17.7525 10.001 15C10.001 12.2475 12.2473 10.0012 14.9998 10.0012C17.7523 10.0012 19.9986 12.2475 19.9986 15C19.9986 17.7525 17.7523 19.9987 14.9998 19.9987ZM23.0061 5.20125C22.0123 5.20125 21.2098 6.00375 21.2098 6.9975C21.2098 7.99125 22.0123 8.79375 23.0061 8.79375C23.9998 8.79375 24.8023 7.995 24.8023 6.9975C24.8026 6.76153 24.7563 6.52782 24.6662 6.30975C24.576 6.09169 24.4437 5.89355 24.2769 5.7267C24.11 5.55984 23.9119 5.42754 23.6938 5.33738C23.4757 5.24721 23.242 5.20095 23.0061 5.20125ZM29.9923 15C29.9923 12.93 30.0111 10.8787 29.8948 8.8125C29.7786 6.4125 29.2311 4.2825 27.4761 2.5275C25.7173 0.768747 23.5911 0.224997 21.1911 0.108747C19.1211 -0.00750281 17.0698 0.0112473 15.0035 0.0112473C12.9335 0.0112473 10.8823 -0.00750281 8.81604 0.108747C6.41604 0.224997 4.28604 0.772497 2.53104 2.5275C0.772288 4.28625 0.228537 6.4125 0.112287 8.8125C-0.00396278 10.8825 0.0147873 12.9337 0.0147873 15C0.0147873 17.0662 -0.00396278 19.1213 0.112287 21.1875C0.228537 23.5875 0.776038 25.7175 2.53104 27.4725C4.28979 29.2313 6.41604 29.775 8.81604 29.8913C10.886 30.0075 12.9373 29.9888 15.0035 29.9888C17.0735 29.9888 19.1248 30.0075 21.1911 29.8913C23.5911 29.775 25.7211 29.2275 27.4761 27.4725C29.2348 25.7137 29.7786 23.5875 29.8948 21.1875C30.0148 19.1213 29.9923 17.07 29.9923 15ZM26.6923 23.8425C26.4186 24.525 26.0886 25.035 25.5598 25.56C25.0311 26.0887 24.5248 26.4188 23.8423 26.6925C21.8698 27.4762 17.1861 27.3 14.9998 27.3C12.8135 27.3 8.12604 27.4763 6.15354 26.6963C5.47104 26.4225 4.96104 26.0925 4.43604 25.5638C3.90729 25.035 3.57729 24.5288 3.30354 23.8463C2.52354 21.87 2.69979 17.1862 2.69979 15C2.69979 12.8137 2.52354 8.12625 3.30354 6.15375C3.57729 5.47125 3.90729 4.96125 4.43604 4.43625C4.96479 3.91125 5.47104 3.5775 6.15354 3.30375C8.12604 2.52375 12.8135 2.7 14.9998 2.7C17.1861 2.7 21.8736 2.52375 23.8461 3.30375C24.5286 3.5775 25.0386 3.9075 25.5636 4.43625C26.0923 4.965 26.4223 5.47125 26.6961 6.15375C27.4761 8.12625 27.2998 12.8137 27.2998 15C27.2998 17.1862 27.4761 21.87 26.6923 23.8425Z" fill="#252B42"/>
</g>
<defs>
<clipPath id="clip0_2879_7983">
<rect width="30" height="30" fill="white"/>
</clipPath>
</defs>
</svg>
