<svg width="151" height="63" viewBox="0 0 151 63" fill="none" xmlns="http://www.w3.org/2000/svg">
<g clip-path="url(#clip0_2865_4184)">
<g clip-path="url(#clip1_2865_4184)">
<path d="M52.8872 22.9887C52.7706 26.6268 54.6044 28.2378 54.6497 29.261C54.6281 29.4692 54.5566 29.6693 54.441 29.8445C54.3255 30.0197 54.1693 30.165 53.9856 30.2681L51.912 31.7072C51.6437 31.8938 51.3274 32.0007 51 32.0156C50.9304 32.0124 49.6733 32.3096 47.6824 27.9021C46.4677 29.4055 44.9223 30.6133 43.1643 31.4332C41.4063 32.2531 39.4824 32.6633 37.54 32.6324C34.9027 32.7754 27.7555 31.1483 28.1233 23.6039C27.8657 17.4553 33.6408 13.6357 39.6135 13.9585C40.7636 13.9618 43.1125 14.018 47.2256 14.9656V12.4567C47.6613 8.20668 44.8443 4.90911 39.9666 5.40383C39.5778 5.40543 36.8239 5.32352 32.5408 7.02771C31.3486 7.57061 31.1963 7.48067 30.7994 7.48067C29.599 7.48067 30.0931 4.03051 30.3231 3.59362C31.1671 2.56564 36.1322 0.646211 41.005 0.673517C44.2631 0.387814 47.5037 1.38483 50.0264 3.44906C51.0519 4.5864 51.8343 5.91801 52.3262 7.3635C52.8182 8.80898 53.0096 10.3383 52.8889 11.8592L52.8872 22.9887ZM38.8877 28.1912C44.1412 28.1157 46.3654 24.9836 46.8724 23.2971C47.2709 21.6828 47.2045 20.6613 47.2045 18.8961C45.638 18.5234 43.3831 18.117 40.796 18.1138C38.3418 17.9307 33.8595 19.0181 34.0344 23.2955C33.8335 25.9923 35.8358 28.339 38.8877 28.1912ZM66.5757 31.8936C65.3024 32.0092 64.7095 31.1129 64.5216 30.2279L56.4543 3.78155C56.2972 3.33502 56.1935 2.87403 56.1433 2.40341C56.1136 2.20939 56.1627 2.01158 56.28 1.85346C56.3972 1.69535 56.573 1.58985 56.7686 1.56015C56.8075 1.55372 56.4236 1.56015 60.373 1.56015C61.7953 1.4188 62.2586 2.5287 62.406 3.2258L68.1924 25.8462L73.5641 3.2258C73.65 2.70859 74.0404 1.44771 75.6376 1.58103H78.4175C78.769 1.55212 80.2172 1.50072 80.4715 3.24668L85.8854 26.1562L91.8581 3.24668C91.9358 2.89652 92.2987 1.42041 93.9122 1.58103H97.1067C97.2444 1.56015 98.1029 1.45093 97.9571 2.95916C97.8875 3.25631 98.5095 1.24694 89.412 30.2488C89.2257 31.1338 88.6312 32.0301 87.3579 31.9144H84.3302C82.558 32.0992 82.3037 30.3628 82.2761 30.1878L76.9044 8.1617L71.5943 30.1653C71.5684 30.3404 71.314 32.0767 69.5402 31.892H66.5757V31.8936ZM110.878 32.7979C109.925 32.7995 105.383 32.7497 101.586 30.8238C101.208 30.665 100.885 30.3984 100.66 30.0579C100.435 29.7173 100.317 29.3181 100.321 28.9108V27.1841C100.321 25.8269 101.325 26.0758 101.751 26.2381C103.377 26.8902 104.421 27.3849 106.418 27.78C112.355 28.9895 114.966 27.4106 115.606 27.0605C117.737 25.806 117.905 22.9357 116.457 21.4467C114.759 20.0349 113.949 19.9819 107.85 18.0737C107.098 17.8665 100.771 15.8876 100.756 9.66352C100.658 5.12756 104.814 0.639785 112.018 0.676728C114.071 0.675122 119.54 1.3401 121.02 3.18564C121.239 3.52134 121.347 3.91647 121.331 4.31642V5.9403C121.331 6.65346 121.069 7.01004 120.542 7.01004C119.293 6.87191 117.077 5.2159 112.579 5.28336C111.463 5.22554 106.117 5.42953 106.357 9.29409C106.287 12.3395 110.667 13.4815 111.168 13.6132C117.074 15.3752 119.049 15.6676 121.393 18.3644C124.169 21.9382 122.673 26.1224 122.097 27.2693C119.007 33.291 111.014 32.8011 110.878 32.7979ZM117.39 49.6407C106.045 57.948 89.5772 62.3699 75.5162 62.3699C56.5435 62.494 38.2103 55.5768 24.1204 42.9781C23.0626 42.032 23.9957 40.7358 25.2819 41.457C40.9118 50.322 58.6081 54.9799 76.6145 54.9685C90.0611 54.897 103.361 52.1923 115.751 47.0097C117.659 46.2066 119.277 48.2625 117.39 49.6407ZM122.119 44.2936C120.667 42.4432 112.516 43.4294 108.866 43.8615C107.766 43.9852 107.58 43.0391 108.576 42.3404C115.067 37.8157 125.728 39.1119 126.952 40.633C128.175 42.1541 126.62 52.7455 120.544 57.8051C119.611 58.5873 118.718 58.1745 119.133 57.1465C120.5 53.7333 123.57 46.1455 122.119 44.2936Z" fill="#737373"/>
</g>
</g>
<defs>
<clipPath id="clip0_2865_4184">
<rect width="151" height="62" fill="white" transform="translate(0 0.5)"/>
</clipPath>
<clipPath id="clip1_2865_4184">
<rect width="104" height="62" fill="white" transform="translate(23.5 0.5)"/>
</clipPath>
</defs>
</svg>
