<svg width="187" height="58" viewBox="0 0 187 58" fill="none" xmlns="http://www.w3.org/2000/svg">
<path d="M9.408 38H2.064V21.224H8.592C9.728 21.224 10.704 21.36 11.52 21.632C12.352 21.904 12.976 22.272 13.392 22.736C14.144 23.6 14.52 24.576 14.52 25.664C14.52 26.976 14.096 27.952 13.248 28.592C12.96 28.816 12.76 28.96 12.648 29.024C12.536 29.072 12.336 29.16 12.048 29.288C13.088 29.512 13.912 29.984 14.52 30.704C15.144 31.408 15.456 32.288 15.456 33.344C15.456 34.512 15.056 35.544 14.256 36.44C13.328 37.48 11.712 38 9.408 38ZM5.808 28.016H7.584C8.624 28.016 9.392 27.904 9.888 27.68C10.4 27.456 10.656 26.976 10.656 26.24C10.656 25.488 10.424 24.992 9.96 24.752C9.496 24.512 8.712 24.392 7.608 24.392H5.808V28.016ZM5.808 34.832H8.376C9.448 34.832 10.248 34.704 10.776 34.448C11.32 34.176 11.592 33.656 11.592 32.888C11.592 32.104 11.304 31.592 10.728 31.352C10.168 31.096 9.264 30.968 8.016 30.968H5.808V34.832ZM29.3189 38H25.9349V36.44C25.0069 37.608 23.8549 38.192 22.4789 38.192C21.1189 38.192 19.9749 37.8 19.0469 37.016C18.1189 36.216 17.6549 35.16 17.6549 33.848C17.6549 32.52 18.1349 31.528 19.0949 30.872C20.0549 30.216 21.3669 29.888 23.0309 29.888H25.7189V29.816C25.7189 28.44 24.9909 27.752 23.5349 27.752C22.9109 27.752 22.2469 27.88 21.5429 28.136C20.8549 28.376 20.2709 28.68 19.7909 29.048L18.1829 26.72C19.8789 25.488 21.8149 24.872 23.9909 24.872C25.5589 24.872 26.8389 25.264 27.8309 26.048C28.8229 26.832 29.3189 28.072 29.3189 29.768V38ZM25.6949 33.08V32.456H23.4389C21.9989 32.456 21.2789 32.904 21.2789 33.8C21.2789 34.264 21.4469 34.624 21.7829 34.88C22.1349 35.12 22.6309 35.24 23.2709 35.24C23.9109 35.24 24.4709 35.048 24.9509 34.664C25.4469 34.264 25.6949 33.736 25.6949 33.08ZM36.3009 30.8V38H32.7009V25.088H36.3009V26.528C37.3889 25.424 38.6129 24.872 39.9729 24.872C41.3329 24.872 42.4689 25.352 43.3809 26.312C44.3089 27.272 44.7729 28.552 44.7729 30.152V38H41.1729V30.704C41.1729 28.72 40.4449 27.728 38.9889 27.728C38.2689 27.728 37.6369 27.992 37.0929 28.52C36.5649 29.032 36.3009 29.792 36.3009 30.8ZM53.289 38.192C51.769 38.192 50.409 37.544 49.209 36.248C48.009 34.952 47.409 33.344 47.409 31.424C47.409 29.504 47.993 27.936 49.161 26.72C50.329 25.488 51.697 24.872 53.265 24.872C54.833 24.872 56.113 25.424 57.105 26.528V20.192H60.705V38H57.105V36.296C56.097 37.56 54.825 38.192 53.289 38.192ZM51.033 31.568C51.033 32.608 51.345 33.464 51.969 34.136C52.593 34.792 53.321 35.12 54.153 35.12C54.985 35.12 55.689 34.792 56.265 34.136C56.857 33.464 57.153 32.608 57.153 31.568C57.153 30.512 56.857 29.64 56.265 28.952C55.689 28.248 54.977 27.896 54.129 27.896C53.281 27.896 52.553 28.248 51.945 28.952C51.337 29.656 51.033 30.528 51.033 31.568ZM75.1814 38H71.7974V36.44C70.8694 37.608 69.7174 38.192 68.3414 38.192C66.9814 38.192 65.8374 37.8 64.9094 37.016C63.9814 36.216 63.5174 35.16 63.5174 33.848C63.5174 32.52 63.9974 31.528 64.9574 30.872C65.9174 30.216 67.2294 29.888 68.8934 29.888H71.5814V29.816C71.5814 28.44 70.8534 27.752 69.3974 27.752C68.7734 27.752 68.1094 27.88 67.4054 28.136C66.7174 28.376 66.1334 28.68 65.6534 29.048L64.0454 26.72C65.7414 25.488 67.6774 24.872 69.8534 24.872C71.4214 24.872 72.7014 25.264 73.6934 26.048C74.6854 26.832 75.1814 28.072 75.1814 29.768V38ZM71.5574 33.08V32.456H69.3014C67.8614 32.456 67.1414 32.904 67.1414 33.8C67.1414 34.264 67.3094 34.624 67.6454 34.88C67.9974 35.12 68.4934 35.24 69.1334 35.24C69.7734 35.24 70.3334 35.048 70.8134 34.664C71.3094 34.264 71.5574 33.736 71.5574 33.08ZM87.6114 31.28C87.6114 30.24 87.3234 29.424 86.7474 28.832C86.1714 28.24 85.4594 27.944 84.6114 27.944C83.7634 27.944 83.0274 28.24 82.4034 28.832C81.7954 29.424 81.4914 30.232 81.4914 31.256C81.4914 32.28 81.7874 33.112 82.3794 33.752C82.9874 34.376 83.7234 34.688 84.5874 34.688C85.4514 34.688 86.1714 34.376 86.7474 33.752C87.3234 33.128 87.6114 32.304 87.6114 31.28ZM88.1154 35.816C86.9794 37.08 85.5634 37.712 83.8674 37.712C82.1874 37.712 80.7634 37.144 79.5954 36.008C78.4434 34.856 77.8674 33.328 77.8674 31.424C77.8674 29.504 78.4594 27.936 79.6434 26.72C80.8434 25.488 82.2114 24.872 83.7474 24.872C85.2834 24.872 86.5554 25.504 87.5634 26.768V25.064H91.1634V36.32C91.1634 37.472 90.9634 38.496 90.5634 39.392C90.1634 40.288 89.6274 40.992 88.9554 41.504C87.6274 42.56 86.0594 43.088 84.2514 43.088C83.2914 43.088 82.3074 42.928 81.2994 42.608C80.3074 42.304 79.4354 41.864 78.6834 41.288L80.0754 38.576C81.2594 39.472 82.5074 39.92 83.8194 39.92C85.1474 39.92 86.1954 39.592 86.9634 38.936C87.7314 38.28 88.1154 37.24 88.1154 35.816ZM105.855 36.128C104.399 37.504 102.687 38.192 100.719 38.192C98.7672 38.192 97.1512 37.592 95.8712 36.392C94.5912 35.176 93.9512 33.552 93.9512 31.52C93.9512 29.488 94.5992 27.872 95.8952 26.672C97.2072 25.472 98.7512 24.872 100.527 24.872C102.303 24.872 103.807 25.408 105.039 26.48C106.287 27.552 106.911 29.024 106.911 30.896V32.816H97.5032C97.6152 33.52 97.9832 34.096 98.6072 34.544C99.2312 34.992 99.9352 35.216 100.719 35.216C101.983 35.216 103.023 34.792 103.839 33.944L105.855 36.128ZM103.263 30.248C103.183 29.48 102.895 28.888 102.399 28.472C101.903 28.056 101.295 27.848 100.575 27.848C99.8712 27.848 99.2232 28.064 98.6312 28.496C98.0392 28.928 97.6952 29.512 97.5992 30.248H103.263Z" fill="#252B42"/>
</svg>
