<svg width="15" height="21" viewBox="0 0 15 21" fill="none" xmlns="http://www.w3.org/2000/svg">
<path d="M6.48 20.656V18.904C4.448 18.584 2.576 17.664 0.864 16.144L3.096 13.432C4.344 14.52 5.472 15.216 6.48 15.52V11.944C4.8 11.512 3.568 10.936 2.784 10.216C2 9.48 1.608 8.432 1.608 7.072C1.608 5.696 2.056 4.568 2.952 3.688C3.848 2.792 5.024 2.256 6.48 2.08V0.904H9.024V2.128C10.624 2.352 12.216 3.016 13.8 4.12L11.832 6.952C10.824 6.232 9.888 5.752 9.024 5.512V8.968C10.752 9.416 12.024 10.016 12.84 10.768C13.672 11.52 14.088 12.584 14.088 13.96C14.088 15.336 13.624 16.472 12.696 17.368C11.784 18.264 10.56 18.8 9.024 18.976V20.656H6.48ZM10.248 14.152C10.248 13.816 10.16 13.536 9.984 13.312C9.808 13.088 9.488 12.88 9.024 12.688V15.64C9.84 15.384 10.248 14.888 10.248 14.152ZM6.48 5.416C5.792 5.656 5.448 6.096 5.448 6.736C5.448 7.376 5.792 7.864 6.48 8.2V5.416Z" fill="#23A6F0"/>
</svg>
